<?xml version="1.0" standalone="no"?>
<!DOCTYPE svg PUBLIC "-//W3C//DTD SVG 20010904//EN"
 "http://www.w3.org/TR/2001/REC-SVG-20010904/DTD/svg10.dtd">
<svg version="1.0" xmlns="http://www.w3.org/2000/svg"
 width="1724.000000pt" height="1504.000000pt" viewBox="0 0 1724.000000 1504.000000"
 preserveAspectRatio="xMidYMid meet">

<g transform="translate(0.000000,1504.000000) scale(0.100000,-0.100000)"
fill="#000000" stroke="none">
<path d="M1763 14961 c-134 -35 -205 -71 -315 -160 -61 -49 -97 -88 -133 -145
-31 -48 -107 -135 -200 -229 -302 -307 -457 -484 -568 -652 -323 -490 -406
-1108 -212 -1583 84 -208 163 -278 335 -301 164 -22 273 38 351 192 71 140
109 308 139 622 15 154 49 287 97 378 41 77 164 212 220 241 18 9 76 21 129
26 169 18 422 114 554 213 82 60 194 181 260 278 135 202 211 520 166 699 -37
150 -143 308 -243 362 -103 57 -198 80 -338 84 -119 4 -139 2 -242 -25z"/>
<path d="M7446 14845 c-107 -22 -160 -43 -316 -120 -176 -88 -272 -151 -545
-355 -115 -86 -254 -189 -308 -229 -62 -45 -206 -178 -385 -355 -158 -155
-303 -292 -322 -303 -59 -36 -139 -53 -290 -64 -119 -8 -159 -7 -223 5 -98 19
-204 70 -282 136 -133 112 -233 199 -304 266 -42 39 -96 86 -121 104 -25 19
-72 58 -105 86 -91 78 -242 172 -315 195 -105 33 -298 38 -430 10 -131 -29
-220 -60 -343 -123 -127 -65 -190 -113 -308 -235 -110 -113 -166 -211 -195
-339 -21 -97 -15 -238 16 -374 16 -70 21 -117 18 -180 l-4 -85 -71 -96 c-39
-53 -86 -105 -105 -117 -18 -11 -94 -37 -168 -57 -154 -42 -345 -131 -445
-207 -138 -104 -363 -393 -445 -572 -114 -248 -158 -497 -126 -713 33 -224 69
-327 164 -474 38 -58 95 -156 128 -219 32 -63 80 -137 105 -164 148 -163 275
-327 293 -376 28 -78 18 -225 -27 -400 -47 -182 -93 -302 -198 -513 -193 -386
-337 -621 -546 -892 -125 -163 -246 -411 -312 -641 -67 -232 -75 -289 -68
-491 6 -209 23 -302 94 -518 62 -191 100 -271 183 -395 101 -150 341 -363 554
-491 212 -127 434 -307 462 -375 39 -93 25 -255 -38 -439 -103 -304 -262 -580
-519 -902 -152 -191 -287 -400 -388 -602 -66 -130 -96 -219 -122 -353 -19
-100 -21 -134 -16 -293 4 -99 13 -215 21 -258 54 -292 224 -579 471 -797 78
-68 327 -232 418 -275 104 -49 161 -61 405 -86 329 -32 602 -19 857 42 132 31
236 20 368 -39 72 -33 71 -32 134 -222 50 -155 131 -311 208 -408 119 -147
289 -280 470 -367 186 -90 291 -111 493 -101 168 9 276 26 472 76 85 22 259
64 385 95 127 30 361 98 520 149 354 115 334 110 533 141 197 31 259 26 482
-36 176 -50 208 -65 368 -178 236 -166 313 -201 572 -256 159 -34 309 -41 565
-26 410 24 660 64 1005 161 79 22 244 61 365 86 127 26 290 68 385 99 332 108
458 145 575 170 370 81 507 74 879 -41 210 -65 259 -84 496 -192 216 -99 330
-137 482 -163 64 -11 166 -31 225 -45 91 -22 139 -27 310 -31 232 -6 471 9
591 37 92 22 309 108 441 175 223 113 415 255 547 405 41 47 130 135 196 195
125 113 257 273 324 391 52 93 123 268 151 374 35 131 44 394 18 555 -26 165
-87 323 -170 435 -92 126 -252 247 -368 281 -40 11 -110 33 -157 49 -47 16
-131 40 -186 54 -60 15 -138 43 -191 70 -77 38 -102 58 -172 133 -137 148
-186 277 -163 433 24 168 104 298 314 512 79 80 177 170 218 200 160 116 450
292 830 503 255 141 322 188 442 313 88 91 221 279 278 392 57 113 99 235 125
365 22 108 26 157 28 324 l2 196 -39 115 c-85 254 -163 382 -317 517 -99 87
-193 144 -427 260 -119 59 -231 120 -249 136 -19 17 -46 51 -61 76 -25 43 -27
53 -27 171 0 92 5 145 20 200 22 85 138 321 218 443 78 119 253 352 382 507
130 157 257 330 307 421 73 131 133 358 148 556 11 140 -3 384 -29 528 -59
321 -208 682 -372 900 -87 116 -330 363 -479 488 -47 39 -113 98 -148 131 -60
57 -63 64 -98 170 -19 61 -38 140 -41 176 -10 123 46 408 112 565 64 152 124
310 135 357 19 75 8 314 -19 438 -41 185 -144 515 -187 600 -40 78 -171 214
-294 306 -130 97 -253 161 -385 201 -81 25 -105 28 -235 27 -119 0 -159 -4
-225 -22 -108 -30 -268 -111 -333 -168 -129 -113 -227 -312 -262 -532 -16 -99
3 -350 39 -512 64 -287 66 -304 54 -530 -12 -231 -14 -239 -95 -358 -73 -105
-162 -193 -228 -225 -100 -48 -226 -79 -325 -81 l-90 -1 -115 59 c-207 106
-243 142 -261 261 -23 143 46 311 193 473 227 252 287 338 330 476 19 62 20
84 15 215 -9 221 -48 330 -157 442 -88 90 -260 167 -394 176 -189 12 -485 -80
-676 -210 -62 -43 -230 -177 -315 -252 -38 -34 -114 -95 -168 -136 -260 -198
-354 -246 -538 -276 -88 -15 -121 -15 -287 -4 -227 15 -320 31 -466 79 -159
52 -543 250 -1062 548 -128 73 -324 181 -435 239 -112 59 -235 129 -274 157
-100 73 -197 123 -295 152 -47 13 -112 34 -145 46 -168 60 -459 92 -589 65z
m-4468 -3334 c20 -10 70 -29 111 -41 88 -26 110 -46 156 -142 65 -136 40 -248
-87 -383 -57 -62 -141 -115 -181 -115 -35 0 -164 61 -207 97 -57 49 -80 101
-80 184 0 145 96 334 205 400 37 23 37 23 83 0z"/>
<path d="M16485 13470 c-33 -18 -88 -47 -122 -65 -176 -93 -297 -232 -374
-429 -43 -110 -61 -207 -61 -326 0 -164 39 -262 170 -422 151 -185 251 -238
442 -238 159 1 276 59 436 215 112 111 140 153 191 287 43 114 53 193 42 333
-17 216 -64 308 -246 485 -99 96 -130 120 -160 126 -21 4 -56 19 -77 33 -31
20 -54 26 -110 29 -64 3 -77 0 -131 -28z"/>
<path d="M550 5588 c-80 -12 -169 -60 -224 -118 -56 -59 -119 -186 -142 -285
-9 -38 -32 -120 -51 -182 -48 -155 -62 -243 -70 -428 -7 -187 4 -284 48 -422
70 -218 196 -321 383 -311 111 5 187 47 307 169 115 116 168 210 223 393 57
186 69 274 70 506 l1 205 -31 81 c-37 94 -82 168 -148 241 -115 127 -226 173
-366 151z"/>
<path d="M15733 4260 c-23 -5 -52 -14 -63 -20 -13 -7 -40 -9 -68 -5 -173 23
-370 -111 -445 -303 -43 -110 -39 -261 10 -362 84 -173 348 -297 552 -260 186
34 274 115 355 332 33 86 60 317 45 373 -46 165 -222 277 -386 245z"/>
</g>
</svg>
